HIERARCHY
ROOT newVegas:Hips
{
	OFFSET 0.000000 96.479958 0.000000
	CHANNELS 6 Xposition Yposition Zposition Xrotation Yrotation Zrotation
	JOINT newVegas:Pelvis
	{
		OFFSET 0.000000 0.000000 0.000000
		CHANNELS 3 Xrotation Yrotation Zrotation
		JOINT newVegas:LeftUpLeg
		{
			OFFSET 18.735201 -5.666702 -4.541200
			CHANNELS 3 Xrotation Yrotation Zrotation
			JOINT newVegas:LeftLeg
			{
				OFFSET -0.021200 -31.938179 0.493100
				CHANNELS 3 Xrotation Yrotation Zrotation
				JOINT newVegas:LeftFoot
				{
					OFFSET 0.021200 -31.938179 -4.336299
					CHANNELS 3 Xrotation Yrotation Zrotation
					JOINT newVegas:LeftToeBase
					{
						OFFSET 0.943001 -26.722000 15.023500
						CHANNELS 3 Xrotation Yrotation Zrotation
						End Site
						{
							OFFSET 0.000000 30.670183 0.000000
						}
					}
				}
				JOINT newVegas:Left_PantLeg
				{
					OFFSET 0.663870 -9.044666 -1.108900
					CHANNELS 3 Xrotation Yrotation Zrotation
					End Site
					{
						OFFSET 1.415995 20.635357 0.000000
					}
				}
			}
		}
		JOINT newVegas:RightUpLeg
		{
			OFFSET -18.735201 -5.666702 -4.541200
			CHANNELS 3 Xrotation Yrotation Zrotation
			JOINT newVegas:RightLeg
			{
				OFFSET 0.018946 -31.938133 0.493100
				CHANNELS 3 Xrotation Yrotation Zrotation
				JOINT newVegas:RightFoot
				{
					OFFSET -0.018946 -31.938126 -4.336299
					CHANNELS 3 Xrotation Yrotation Zrotation
					JOINT newVegas:RightToeBase
					{
						OFFSET -0.943001 -26.722004 15.023500
						CHANNELS 3 Xrotation Yrotation Zrotation
						End Site
						{
							OFFSET 0.000000 30.670187 0.000000
						}
					}
				}
				JOINT newVegas:Right_PantLeg
				{
					OFFSET -0.661674 -9.044716 -1.108900
					CHANNELS 3 Xrotation Yrotation Zrotation
					End Site
					{
						OFFSET -1.415958 20.635269 0.000000
					}
				}
			}
		}
	}
	JOINT newVegas:Spine
	{
		OFFSET 0.000000 10.199997 -0.299500
		CHANNELS 3 Xrotation Yrotation Zrotation
		JOINT newVegas:Spine1
		{
			OFFSET 0.000000 11.900002 -1.516600
			CHANNELS 3 Xrotation Yrotation Zrotation
			JOINT newVegas:Spine2
			{
				OFFSET 0.000000 13.600006 -2.842500
				CHANNELS 3 Xrotation Yrotation Zrotation
				JOINT newVegas:Neck
				{
					OFFSET 0.000000 9.624100 -2.890100
					CHANNELS 3 Xrotation Yrotation Zrotation
					JOINT newVegas:Head
					{
						OFFSET 0.000000 14.068802 -1.351900
						CHANNELS 3 Xrotation Yrotation Zrotation
						JOINT newVegas:Hair_Back
						{
							OFFSET 0.000000 3.231903 -17.524799
							CHANNELS 3 Xrotation Yrotation Zrotation
							End Site
							{
								OFFSET 0.000000 19.849884 0.000000
							}
						}
						JOINT newVegas:Hair_Front
						{
							OFFSET 0.000000 31.260406 4.573800
							CHANNELS 3 Xrotation Yrotation Zrotation
							JOINT newVegas:Hair_Front1
							{
								OFFSET 0.000000 2.284103 11.993300
								CHANNELS 3 Xrotation Yrotation Zrotation
								JOINT newVegas:Hair_Front2
								{
									OFFSET 0.000000 2.284103 11.993300
									CHANNELS 3 Xrotation Yrotation Zrotation
									End Site
									{
										OFFSET 0.000000 12.208862 0.000000
									}
								}
							}
						}
						JOINT newVegas:Jowel
						{
							OFFSET 0.000000 -7.458206 6.864100
							CHANNELS 3 Xrotation Yrotation Zrotation
							End Site
							{
								OFFSET 0.000000 19.849884 0.000000
							}
						}
					}
				}
				JOINT newVegas:LeftShoulder
				{
					OFFSET 15.263000 10.923401 -0.547700
					CHANNELS 3 Xrotation Yrotation Zrotation
					JOINT newVegas:LeftArm
					{
						OFFSET 25.438599 -2.830597 -13.032500
						CHANNELS 3 Xrotation Yrotation Zrotation
						JOINT newVegas:LeftForeArm
						{
							OFFSET 29.960503 0.000000 0.000000
							CHANNELS 3 Xrotation Yrotation Zrotation
							JOINT newVegas:LeftHand
							{
								OFFSET 27.849251 0.000000 0.000000
								CHANNELS 3 Xrotation Yrotation Zrotation
								JOINT newVegas:LeftHandThumb1
								{
									OFFSET 4.487587 -3.305161 6.305391
									CHANNELS 3 Xrotation Yrotation Zrotation
									JOINT newVegas:LeftHandThumb2
									{
										OFFSET 5.480453 -3.164139 3.164143
										CHANNELS 3 Xrotation Yrotation Zrotation
										JOINT newVegas:LeftHandThumb3
										{
											OFFSET 5.159721 -2.978973 2.978967
											CHANNELS 3 Xrotation Yrotation Zrotation
											End Site
											{
												OFFSET 2.494507 5.926697 1.738678
											}
										}
									}
								}
								JOINT newVegas:LeftHandIndex1
								{
									OFFSET 18.578728 -0.527832 5.208049
									CHANNELS 3 Xrotation Yrotation Zrotation
									JOINT newVegas:LeftHandIndex2
									{
										OFFSET 3.192009 0.000000 0.000000
										CHANNELS 3 Xrotation Yrotation Zrotation
										JOINT newVegas:LeftHandIndex3
										{
											OFFSET 3.835129 0.000000 0.000000
											CHANNELS 3 Xrotation Yrotation Zrotation
											End Site
											{
												OFFSET -0.034599 3.816971 0.371180
											}
										}
									}
								}
								JOINT newVegas:LeftHandMiddle1
								{
									OFFSET 18.476105 0.000000 0.000000
									CHANNELS 3 Xrotation Yrotation Zrotation
									JOINT newVegas:LeftHandMiddle2
									{
										OFFSET 3.324875 0.000000 0.000000
										CHANNELS 3 Xrotation Yrotation Zrotation
										JOINT newVegas:LeftHandMiddle3
										{
											OFFSET 4.596550 0.000000 0.000000
											CHANNELS 3 Xrotation Yrotation Zrotation
											End Site
											{
												OFFSET 0.057701 4.578827 0.399218
											}
										}
									}
								}
								JOINT newVegas:LeftHandRing1
								{
									OFFSET 17.732719 0.121887 -4.201567
									CHANNELS 3 Xrotation Yrotation Zrotation
									JOINT newVegas:LeftHandRing2
									{
										OFFSET 2.733170 0.000000 0.000000
										CHANNELS 3 Xrotation Yrotation Zrotation
										JOINT newVegas:LeftHandRing3
										{
											OFFSET 3.178268 0.000000 0.000000
											CHANNELS 3 Xrotation Yrotation Zrotation
											End Site
											{
												OFFSET 0.119102 3.170624 0.185394
											}
										}
									}
								}
								JOINT newVegas:LeftHandPinky1
								{
									OFFSET 15.989624 -0.606689 -7.535461
									CHANNELS 3 Xrotation Yrotation Zrotation
									JOINT newVegas:LeftHandPinky2
									{
										OFFSET 2.538986 0.000000 0.000000
										CHANNELS 3 Xrotation Yrotation Zrotation
										JOINT newVegas:LeftHandPinky3
										{
											OFFSET 2.593102 0.000000 0.000000
											CHANNELS 3 Xrotation Yrotation Zrotation
											End Site
											{
												OFFSET -0.150902 2.584198 0.152708
											}
										}
									}
								}
							}
							JOINT newVegas:Left_Sleeve
							{
								OFFSET 0.267448 -0.649796 0.577675
								CHANNELS 3 Xrotation Yrotation Zrotation
								End Site
								{
									OFFSET 0.000000 15.991241 0.000000
								}
							}
							JOINT newVegas:Left_CapeC
							{
								OFFSET 15.715958 -8.608795 -6.935905
								CHANNELS 3 Xrotation Yrotation Zrotation
								JOINT newVegas:Left_CapeC1
								{
									OFFSET 0.000000 -8.688499 0.000000
									CHANNELS 3 Xrotation Yrotation Zrotation
									End Site
									{
										OFFSET 0.000000 8.688499 0.000000
									}
								}
							}
						}
						JOINT newVegas:Left_CapeB
						{
							OFFSET 26.118385 -8.608795 -7.079235
							CHANNELS 3 Xrotation Yrotation Zrotation
							JOINT newVegas:Left_CapeB1
							{
								OFFSET 0.000000 -8.688499 0.000000
								CHANNELS 3 Xrotation Yrotation Zrotation
								End Site
								{
									OFFSET 0.000000 8.688499 0.000000
								}
							}
						}
						JOINT newVegas:Left_CapeA
						{
							OFFSET 5.115639 -8.608795 -10.395809
							CHANNELS 3 Xrotation Yrotation Zrotation
							JOINT newVegas:Left_CapeA1
							{
								OFFSET 0.000000 -8.688499 0.000000
								CHANNELS 3 Xrotation Yrotation Zrotation
								End Site
								{
									OFFSET 0.000000 8.688499 0.000000
								}
							}
						}
					}
				}
				JOINT newVegas:RightShoulder
				{
					OFFSET -15.263000 10.923401 -0.547700
					CHANNELS 3 Xrotation Yrotation Zrotation
					JOINT newVegas:RightArm
					{
						OFFSET -25.438599 -2.830597 -13.032500
						CHANNELS 3 Xrotation Yrotation Zrotation
						JOINT newVegas:RightForeArm
						{
							OFFSET -29.960503 0.000000 0.000000
							CHANNELS 3 Xrotation Yrotation Zrotation
							JOINT newVegas:RightHand
							{
								OFFSET -27.849251 0.000000 0.000000
								CHANNELS 3 Xrotation Yrotation Zrotation
								JOINT newVegas:RightHandThumb1
								{
									OFFSET -4.487587 -3.305161 6.305391
									CHANNELS 3 Xrotation Yrotation Zrotation
									JOINT newVegas:RightHandThumb2
									{
										OFFSET -5.480453 -3.164139 3.164143
										CHANNELS 3 Xrotation Yrotation Zrotation
										JOINT newVegas:RightHandThumb3
										{
											OFFSET -5.159721 -2.978973 2.978967
											CHANNELS 3 Xrotation Yrotation Zrotation
											End Site
											{
												OFFSET -2.494507 5.926697 1.738678
											}
										}
									}
								}
								JOINT newVegas:RightHandIndex1
								{
									OFFSET -18.578728 -0.527832 5.208049
									CHANNELS 3 Xrotation Yrotation Zrotation
									JOINT newVegas:RightHandIndex2
									{
										OFFSET -3.192009 0.000000 0.000000
										CHANNELS 3 Xrotation Yrotation Zrotation
										JOINT newVegas:RightHandIndex3
										{
											OFFSET -3.835129 0.000000 0.000000
											CHANNELS 3 Xrotation Yrotation Zrotation
											End Site
											{
												OFFSET 0.034599 3.816971 0.371180
											}
										}
									}
								}
								JOINT newVegas:RightHandMiddle1
								{
									OFFSET -18.476105 0.000000 0.000000
									CHANNELS 3 Xrotation Yrotation Zrotation
									JOINT newVegas:RightHandMiddle2
									{
										OFFSET -3.324875 0.000000 0.000000
										CHANNELS 3 Xrotation Yrotation Zrotation
										JOINT newVegas:RightHandMiddle3
										{
											OFFSET -4.596550 0.000000 0.000000
											CHANNELS 3 Xrotation Yrotation Zrotation
											End Site
											{
												OFFSET -0.057701 4.578827 0.399218
											}
										}
									}
								}
								JOINT newVegas:RightHandRing1
								{
									OFFSET -17.732719 0.121887 -4.201567
									CHANNELS 3 Xrotation Yrotation Zrotation
									JOINT newVegas:RightHandRing2
									{
										OFFSET -2.733170 0.000000 0.000000
										CHANNELS 3 Xrotation Yrotation Zrotation
										JOINT newVegas:RightHandRing3
										{
											OFFSET -3.178268 0.000000 0.000000
											CHANNELS 3 Xrotation Yrotation Zrotation
											End Site
											{
												OFFSET -0.119102 3.170624 0.185394
											}
										}
									}
								}
								JOINT newVegas:RightHandPinky1
								{
									OFFSET -15.989624 -0.606689 -7.535461
									CHANNELS 3 Xrotation Yrotation Zrotation
									JOINT newVegas:RightHandPinky2
									{
										OFFSET -2.538986 0.000000 0.000000
										CHANNELS 3 Xrotation Yrotation Zrotation
										JOINT newVegas:RightHandPinky3
										{
											OFFSET -2.593102 0.000000 0.000000
											CHANNELS 3 Xrotation Yrotation Zrotation
											End Site
											{
												OFFSET 0.150902 2.584198 0.152708
											}
										}
									}
								}
							}
							JOINT newVegas:Right_CapeC
							{
								OFFSET -15.715958 -8.608795 -6.935905
								CHANNELS 3 Xrotation Yrotation Zrotation
								JOINT newVegas:Right_CapeC1
								{
									OFFSET 0.000000 -8.688499 0.000000
									CHANNELS 3 Xrotation Yrotation Zrotation
									End Site
									{
										OFFSET 0.000000 8.688499 0.000000
									}
								}
							}
							JOINT newVegas:Right_Sleeve
							{
								OFFSET -0.267448 -0.649994 0.577675
								CHANNELS 3 Xrotation Yrotation Zrotation
								End Site
								{
									OFFSET 0.000000 15.991302 0.000000
								}
							}
						}
						JOINT newVegas:Right_CapeA
						{
							OFFSET -5.115540 -8.608795 -10.395824
							CHANNELS 3 Xrotation Yrotation Zrotation
							JOINT newVegas:Right_CapeA1
							{
								OFFSET 0.000000 -8.688499 0.000000
								CHANNELS 3 Xrotation Yrotation Zrotation
								End Site
								{
									OFFSET 0.000000 8.688499 0.000000
								}
							}
						}
						JOINT newVegas:Right_CapeB
						{
							OFFSET -26.118187 -8.608795 -7.079266
							CHANNELS 3 Xrotation Yrotation Zrotation
							JOINT newVegas:Right_CapeB1
							{
								OFFSET 0.000000 -8.688499 0.000000
								CHANNELS 3 Xrotation Yrotation Zrotation
								End Site
								{
									OFFSET 0.000000 8.688499 0.000000
								}
							}
						}
					}
				}
				JOINT newVegas:Left_Collar
				{
					OFFSET 18.625099 8.655502 8.828100
					CHANNELS 3 Xrotation Yrotation Zrotation
					JOINT newVegas:Left_Collar1
					{
						OFFSET 14.783401 10.540405 -1.259500
						CHANNELS 3 Xrotation Yrotation Zrotation
						End Site
						{
							OFFSET 0.000000 18.199875 0.000000
						}
					}
				}
				JOINT newVegas:Collar_Back
				{
					OFFSET 0.000000 15.630707 -20.132601
					CHANNELS 3 Xrotation Yrotation Zrotation
					End Site
					{
						OFFSET 0.000000 22.523010 0.000000
					}
				}
				JOINT newVegas:Left_Peck
				{
					OFFSET 17.239599 -5.132599 25.482599
					CHANNELS 3 Xrotation Yrotation Zrotation
					End Site
					{
						OFFSET 0.000000 22.523010 0.000000
					}
				}
				JOINT newVegas:Right_Peck
				{
					OFFSET -17.239599 -5.132202 25.482599
					CHANNELS 3 Xrotation Yrotation Zrotation
					End Site
					{
						OFFSET 0.000000 22.523010 0.000000
					}
				}
				JOINT newVegas:Right_Collar
				{
					OFFSET -18.625099 8.655792 8.828100
					CHANNELS 3 Xrotation Yrotation Zrotation
					JOINT newVegas:Right_Collar1
					{
						OFFSET -14.783401 10.539993 -1.259500
						CHANNELS 3 Xrotation Yrotation Zrotation
						End Site
						{
							OFFSET 0.000000 18.199631 0.000000
						}
					}
				}
			}
		}
		JOINT newVegas:Belly
		{
			OFFSET 0.000000 -6.540398 9.014299
			CHANNELS 3 Xrotation Yrotation Zrotation
			End Site
			{
				OFFSET 0.000000 11.566666 0.000000
			}
		}
	}
	JOINT newVegas:ElvisFacialAnim_Joint
	{
		OFFSET 1.000000 -95.330101 -8.825800
		CHANNELS 3 Xrotation Yrotation Zrotation
		End Site
		{
			OFFSET 0.000000 35.315800 0.000000
		}
	}
}
MOTION
Frames: 4
Frame Time: 0.033333
-22.148987 45.927925 -0.055138 -133.314228 -39.616682 -139.748047 -0.000001 -0.000001 -0.000000 -85.546958 -15.353890 21.688789 119.694229 -13.842172 -1.176955 3.127483 -6.055149 -8.414493 -0.000000 -0.000002 -0.000000 -0.000001 -0.000001 -0.000000 -68.214937 59.087482 7.724822 148.904544 36.319582 5.399693 -27.053529 -15.283399 32.791397 0.000002 -0.000002 0.000001 0.000002 0.000001 -0.000001 58.659563 3.517075 2.452590 10.437670 1.134094 -4.718220 17.200351 0.177506 -4.871431 -1.026453 2.769233 -0.215571 -1.026456 2.769255 -0.215578 -0.000000 0.000000 0.000001 -1.026469 2.769225 -0.215578 -1.026440 2.769267 -0.215587 0.000003 0.000001 -0.000001 -0.000000 0.000000 0.000000 -36.777014 -6.407648 0.749950 -79.570181 -22.111105 -71.812732 0.000010 -41.543342 -0.000003 -120.453883 5.490683 21.094758 4.530932 9.161222 4.364281 19.473180 -1.474903 7.636914 0.000000 0.000004 -0.000004 -0.262725 3.901250 -37.224709 2.896109 5.052288 -59.623016 -0.000007 0.000000 -0.000001 0.332305 5.456611 -52.561420 3.316691 5.275401 -64.293684 0.000002 0.000001 -0.000002 -0.951421 5.227661 -60.792529 4.060925 5.571383 -72.155560 0.000003 -0.000004 -0.000006 -6.908500 4.544739 -72.935676 3.307876 5.271165 -64.197747 -0.000002 -0.000003 0.000001 -0.000001 0.000001 0.000003 -0.000001 0.000001 0.000003 -0.000002 0.000001 0.000003 0.000002 -0.000001 -0.000000 0.000002 -0.000001 0.000000 0.000002 -0.000001 -0.000000 0.000001 -0.000002 0.000001 -41.834366 -9.966626 -6.348561 -50.647796 42.414402 94.025538 0.000395 103.778331 -0.000358 -37.460073 -25.902183 -24.448324 8.532890 -5.051810 11.061362 21.798175 -18.478438 -18.324602 0.000003 -0.000001 0.000001 -0.869234 1.858374 11.483027 0.748239 -2.533665 32.901107 0.000000 0.000001 0.000005 3.273217 -7.093611 51.234816 6.294222 -4.360530 110.600932 -0.000000 0.000001 0.000000 -3.336668 -2.485498 56.121025 5.436513 -4.591619 99.643717 0.000000 0.000001 -0.000002 -3.951418 -3.187971 63.637945 4.059505 -4.618709 82.618863 -0.000003 0.000001 0.000002 0.000000 0.000002 -0.000000 0.000000 -0.000000 -0.000003 0.000000 0.000002 -0.000000 -0.000001 0.000003 -0.000002 -0.000001 0.000004 -0.000002 -0.000001 0.000003 -0.000002 -0.000001 0.000004 -0.000003 0.000000 0.000001 -0.000001 0.000000 0.000001 -0.000001 0.000000 0.000001 -0.000001 0.000000 0.000001 -0.000001 0.000000 0.000001 -0.000001 0.000000 0.000001 -0.000001 0.000000 0.000001 -0.000001 -0.000000 -0.000001 0.000001 -0.000001 -0.000001 -0.000000 
-22.738213 46.015991 0.271341 -134.315547 -39.123163 -141.223928 0.000001 -0.000002 -0.000002 -85.537731 -16.017552 22.129745 121.158759 -14.339280 -1.249998 1.535576 -5.158726 -8.323464 -0.000000 0.000000 0.000000 0.000000 0.000001 -0.000000 -66.103821 60.574639 5.677943 147.792467 35.908080 5.501133 -26.880768 -14.738223 34.576432 0.000001 0.000001 -0.000001 0.000002 0.000000 -0.000001 58.719450 3.230937 2.141690 10.463903 1.074644 -4.668805 17.234082 0.137805 -4.801356 -1.125621 2.790407 -0.153754 -1.125651 2.790382 -0.153754 0.000000 -0.000001 0.000001 -1.125639 2.790405 -0.153749 -1.125608 2.790397 -0.153754 -0.000001 0.000000 0.000001 0.000000 -0.000001 0.000001 -37.339295 -4.881631 1.724491 -77.908102 -22.214454 -71.910096 -0.000004 -42.887318 -0.000008 -121.792641 4.861254 20.476269 4.571942 9.216038 4.043332 19.473182 -1.474901 7.636909 0.000001 -0.000002 -0.000003 -0.283514 3.856363 -36.987523 2.913785 5.062601 -59.823762 0.000000 -0.000001 0.000000 0.327225 5.444714 -52.418225 3.333532 5.283444 -64.476747 -0.000003 -0.000000 -0.000001 -0.744755 5.340697 -60.762517 4.056058 5.569811 -72.105310 0.000002 -0.000001 0.000001 -6.795501 4.531118 -72.706230 3.304641 5.269609 -64.162456 -0.000004 -0.000005 -0.000002 -0.000002 0.000003 0.000002 -0.000002 0.000003 0.000002 -0.000003 0.000004 0.000002 0.000001 -0.000001 -0.000000 0.000001 -0.000001 -0.000002 0.000001 -0.000001 -0.000000 -0.000000 -0.000001 0.000001 -41.987198 -9.911154 -6.987023 -50.795673 43.511775 94.125621 0.000381 103.653407 -0.000379 -37.599566 -24.402895 -24.839335 8.473724 -4.996924 11.035821 21.728659 -18.369101 -18.347244 -0.000001 -0.000003 -0.000001 -0.881801 1.794547 11.759472 0.748174 -2.533578 32.899826 -0.000001 -0.000000 -0.000002 3.323967 -7.130279 51.322444 6.295386 -4.360099 110.616205 0.000001 -0.000000 0.000001 -3.340463 -2.519513 56.384332 5.436295 -4.591642 99.641054 0.000001 0.000001 -0.000002 -3.977888 -3.219717 63.948527 4.059732 -4.618754 82.621704 -0.000001 -0.000000 0.000000 0.000001 0.000003 -0.000000 0.000001 0.000002 -0.000001 0.000001 0.000003 0.000001 -0.000001 0.000003 -0.000002 -0.000001 0.000003 -0.000002 -0.000001 0.000003 -0.000002 -0.000001 0.000003 -0.000002 0.000003 -0.000001 -0.000000 0.000003 -0.000001 -0.000000 0.000003 -0.000001 -0.000000 0.000003 -0.000001 -0.000000 0.000003 -0.000001 -0.000000 0.000003 -0.000001 -0.000000 0.000003 -0.000001 -0.000000 -0.000001 0.000001 -0.000000 0.000001 -0.000002 -0.000002 
-23.221256 45.983757 0.443932 -135.088479 -38.793651 -142.306158 0.000002 -0.000001 0.000000 -85.805174 -16.395382 22.648200 122.367415 -14.556532 -1.320130 0.522396 -4.751687 -7.851832 -0.000000 0.000001 0.000000 -0.000000 0.000003 -0.000000 -63.929669 62.085737 3.786809 146.949170 36.454943 5.713497 -26.674438 -15.432268 36.231705 0.000001 -0.000001 0.000000 0.000001 0.000001 -0.000002 58.667077 2.890514 1.890557 10.591681 0.985617 -4.588700 17.366941 0.106229 -4.695935 -1.282609 2.807534 -0.168315 -1.282593 2.807548 -0.168305 0.000002 0.000000 -0.000001 -1.282541 2.807506 -0.168306 -1.282647 2.807570 -0.168308 -0.000001 -0.000000 0.000001 0.000002 0.000000 -0.000001 -37.519182 -4.662000 1.666212 -76.326394 -21.452246 -70.927232 0.000001 -45.102659 -0.000013 -122.041916 4.534033 20.964852 4.635732 9.381222 3.602768 19.473187 -1.474910 7.636921 0.000005 0.000001 0.000003 -0.225510 3.934221 -36.995440 2.924996 5.069069 -59.950578 -0.000007 -0.000001 -0.000001 0.359731 5.469804 -52.420595 3.353122 5.292723 -64.689316 -0.000001 -0.000000 -0.000001 -0.492500 5.488595 -60.847533 4.051961 5.568508 -72.063297 0.000001 0.000001 0.000005 -6.759183 4.513234 -72.568096 3.301979 5.268327 -64.133489 -0.000001 -0.000002 0.000000 -0.000002 0.000002 0.000004 -0.000002 0.000002 0.000004 -0.000003 0.000002 0.000004 0.000001 0.000000 -0.000000 0.000001 0.000000 0.000000 0.000001 0.000000 -0.000000 -0.000001 -0.000001 -0.000000 -42.091976 -9.842572 -7.409963 -51.395258 44.396175 94.687787 0.000199 103.532895 -0.000189 -37.455033 -23.790917 -25.204397 8.413506 -4.941017 11.009632 21.651257 -18.247103 -18.372270 -0.000002 0.000000 0.000001 -0.899786 1.776497 11.997701 0.748208 -2.533585 32.899997 -0.000001 0.000000 0.000002 3.331651 -7.130499 51.457962 6.298071 -4.359095 110.651510 0.000000 -0.000000 0.000001 -3.350926 -2.545003 56.618863 5.439260 -4.591164 99.677964 0.000000 0.000001 -0.000001 -3.986645 -3.252806 64.207207 4.059829 -4.618770 82.622900 -0.000001 0.000001 0.000001 -0.000001 0.000004 -0.000003 -0.000001 0.000004 -0.000004 -0.000001 0.000004 -0.000001 0.000001 -0.000003 0.000001 0.000001 -0.000002 0.000001 0.000001 -0.000003 0.000001 0.000001 -0.000002 0.000001 0.000001 0.000000 -0.000001 0.000001 0.000000 -0.000001 0.000001 0.000000 -0.000001 0.000001 0.000000 -0.000001 0.000001 0.000000 -0.000001 0.000001 0.000000 -0.000001 0.000001 0.000000 -0.000001 -0.000001 0.000000 -0.000000 0.000002 -0.000001 0.000000 
-23.497055 45.915863 0.523661 -135.633815 -38.549267 -143.120426 -0.000000 0.000001 0.000002 -86.016848 -16.943891 23.013303 123.254670 -14.657273 -1.355185 -0.205400 -4.490402 -7.704605 -0.000000 0.000001 0.000000 -0.000000 -0.000001 0.000000 -62.807981 62.855834 2.824245 146.523212 37.163083 5.865157 -26.057083 -16.822911 37.446034 -0.000001 -0.000002 -0.000001 -0.000000 0.000002 0.000001 58.653580 2.824785 1.785765 10.659214 0.892929 -4.504034 17.444745 0.053267 -4.581352 -1.373836 2.829724 -0.205667 -1.373836 2.829717 -0.205657 0.000002 -0.000000 0.000002 -1.373767 2.829693 -0.205662 -1.373982 2.829777 -0.205667 0.000002 0.000001 0.000001 0.000002 -0.000000 0.000002 -37.542555 -4.834180 1.433854 -75.078669 -20.509543 -69.844879 -0.000005 -46.870759 -0.000006 -122.175255 4.392236 21.501487 4.686056 9.560756 3.296445 19.473195 -1.474903 7.636913 0.000001 0.000004 -0.000001 -0.147819 4.048397 -37.155512 2.932022 5.073106 -60.030307 -0.000000 -0.000000 -0.000001 0.406510 5.513042 -52.556229 3.366440 5.298962 -64.833487 -0.000003 -0.000002 0.000001 -0.259567 5.633087 -61.041325 4.053822 5.569095 -72.082258 0.000002 -0.000001 0.000004 -6.718552 4.527258 -72.573246 3.301167 5.267930 -64.124787 0.000001 -0.000005 -0.000002 0.000001 -0.000001 0.000003 0.000001 -0.000001 0.000003 0.000001 0.000000 0.000003 -0.000001 0.000002 -0.000001 -0.000001 0.000001 -0.000001 -0.000001 0.000002 -0.000001 -0.000002 0.000001 -0.000000 -42.133897 -9.820576 -7.584862 -52.235077 45.023729 95.471483 0.000023 103.289987 -0.000000 -37.165757 -23.854521 -25.358377 8.381894 -4.911703 10.995062 21.615807 -18.190701 -18.383555 -0.000002 0.000001 0.000001 -0.908328 1.749209 12.153555 0.748169 -2.533565 32.899597 -0.000001 -0.000001 -0.000001 3.348737 -7.140398 51.541010 6.299113 -4.358706 110.665109 0.000000 -0.000000 0.000001 -3.350195 -2.567731 56.779499 5.441137 -4.590833 99.701596 0.000001 0.000001 -0.000001 -3.994651 -3.274129 64.381609 4.059870 -4.618759 82.623391 -0.000001 -0.000002 0.000001 -0.000000 -0.000002 -0.000001 -0.000000 -0.000002 -0.000001 -0.000000 -0.000002 0.000000 -0.000002 0.000002 0.000000 -0.000002 0.000003 -0.000000 -0.000002 0.000002 0.000000 -0.000002 0.000002 -0.000000 -0.000000 0.000001 -0.000002 -0.000000 0.000001 -0.000002 -0.000000 0.000001 -0.000002 -0.000000 0.000001 -0.000002 -0.000000 0.000001 -0.000002 -0.000000 0.000001 -0.000002 -0.000000 0.000001 -0.000002 0.000002 0.000001 -0.000001 -0.000000 0.000001 0.000002 
